<svg width="111" height="101" viewBox="0 0 111 101" fill="none" xmlns="http://www.w3.org/2000/svg">
<g clip-path="url(#clip0_18_115)">
<rect width="111" height="101" fill="#63328A"/>
<path fill-rule="evenodd" clip-rule="evenodd" d="M0 0H111V101H0V0ZM0.493333 0.490291H110.507V100.51H0.493333V0.490291ZM1.48 1.47087H109.52V99.5291H1.48V1.47087ZM1.97333 1.96117H109.027V99.0388H1.48H1.97333V1.96117Z" fill="white"/>
<path d="M309.069 -216.793H-76.1308V167.973H309.069V-216.793Z" fill="#A9D2FF"/>
<path d="M78.2452 12.2573H62.3917V39.8062L78.2452 24.0139V12.2573ZM75.0376 22.6957L65.5993 32.0965V15.4451H75.0376V22.6957Z" fill="#A9D2FF"/>
<path d="M75.6982 30.2362L63.0551 42.8334L65.326 45.0846L77.9692 32.4874L75.6982 30.2362Z" fill="#A9D2FF"/>
<path d="M32.8066 24.0139L48.6601 39.8062V12.2573H32.8066V24.0139ZM36.0142 15.4451H45.4525V32.0981L36.0142 22.6957V15.4451Z" fill="#A9D2FF"/>
<path d="M35.3542 30.2373L33.0829 32.4882L45.7243 45.0873L47.9956 42.8364L35.3542 30.2373Z" fill="#A9D2FF"/>
<path d="M59.8674 63.2621V12.2573H51.1844V63.2621H59.8674ZM54.392 15.4451H56.6598V60.0743H54.392V15.4451Z" fill="#A9D2FF"/>
<path d="M48.3394 12.6557V35.8614L35.028 22.6352V12.6557H48.3394Z" fill="#A9D2FF" stroke="#A9D2FF" stroke-width="4.26512" stroke-miterlimit="10"/>
<path d="M61.1088 12.6557V35.8614L74.4202 22.6352V12.6557H61.1088Z" fill="#A9D2FF" stroke="#A9D2FF" stroke-width="4.26512" stroke-miterlimit="10"/>
<path d="M61.3124 42.5972L74.6238 29.371" stroke="#A9D2FF" stroke-width="4.26512" stroke-miterlimit="10"/>
<path d="M48.1357 42.5972L34.8242 29.371" stroke="#A9D2FF" stroke-width="4.26512" stroke-miterlimit="10"/>
<path d="M56.7625 12.6557H52.6873V62.8636H56.7625V12.6557Z" fill="#A9D2FF" stroke="#A9D2FF" stroke-width="4.26512" stroke-miterlimit="10"/>
<path d="M15.1482 75.417C13.6627 75.417 12.575 74.7114 12.3333 73.5103L13.3555 73.2701C13.5167 74.0959 14.2368 74.5713 15.1834 74.5713C15.9438 74.5713 16.674 74.261 16.6589 73.4102C16.6488 72.5694 15.7323 72.3392 14.7604 72.074C13.6577 71.7737 12.5549 71.4284 12.5549 70.1273C12.5549 68.8111 13.6476 68.1505 14.9417 68.1505C16.1956 68.1505 17.3235 68.676 17.5903 69.8921L16.6185 70.1373C16.4422 69.3516 15.7825 69.0013 14.9869 69.0013C14.2719 69.0013 13.5619 69.3115 13.5619 70.1173C13.5619 70.8479 14.3575 71.0631 15.2589 71.3033C16.3919 71.6086 17.691 71.9589 17.691 73.3802C17.691 74.8115 16.4826 75.417 15.1482 75.417ZM24.8782 69.1414H22.028V71.3434H24.5408V72.2342H22.028V74.4212H24.8782V75.322H21.0058V68.2457H24.8782V69.1414ZM31.31 75.417C29.2908 75.417 27.7498 74.0408 27.7498 71.7788C27.7498 69.5268 29.2907 68.1506 31.31 68.1506C32.7502 68.1506 33.9437 68.8612 34.4926 70.0773L33.566 70.4426C33.1531 69.5769 32.3122 69.0914 31.3101 69.0914C29.88 69.0914 28.747 70.0723 28.747 71.7788C28.747 73.4953 29.88 74.4761 31.3101 74.4761C32.3122 74.4761 33.1531 73.9907 33.566 73.1249L34.4926 73.4953C33.9437 74.7064 32.7503 75.417 31.31 75.417ZM40.1286 75.417C38.6532 75.417 37.5102 74.5513 37.5102 72.9548V68.2455H38.5123V72.8147C38.5123 73.9807 39.2173 74.5162 40.1287 74.5162C41.0401 74.5162 41.7602 73.9757 41.7602 72.8147V68.2455H42.7623V72.9548C42.7623 74.5513 41.6142 75.417 40.1286 75.417ZM50.2919 75.322L48.4489 72.1391H47.4518V75.322H46.4498V68.2456H48.8467C50.3372 68.2456 51.017 69.1515 51.017 70.2624C51.017 71.2483 50.4329 71.9339 49.456 72.0991L51.4652 75.322L50.2919 75.322ZM47.4517 69.1063V71.3784H48.7106C49.6372 71.3784 50.0551 70.9179 50.0551 70.2473C50.0551 69.5867 49.6371 69.1063 48.7106 69.1063H47.4517ZM58.466 69.1414H55.6157V71.3434H58.1285V72.2342H55.6157V74.4212H58.466V75.322H54.5935V68.2457H58.466V69.1414ZM70.0505 69.1414H67.2003V71.3434H69.7131V72.2342H67.2003V74.4212H70.0505V75.322H66.1781V68.2457H70.0505V69.1414ZM72.5948 75.322L75.3695 71.6286L72.7157 68.2456H73.9293L75.9687 70.9181L77.998 68.2456H79.2166L76.5577 71.6286L79.3324 75.322H78.0634L75.9686 72.4043L73.8688 75.322H72.5948ZM86.9575 75.322L86.3633 73.6705H83.1808L82.5866 75.322H81.5442L84.1678 68.2456H85.3764L87.9999 75.322H86.9575ZM83.4931 72.7997H86.0512L84.7722 69.2314L83.4931 72.7997ZM98.6667 75.322H97.6847L97.2164 69.5668L95.0159 75.322H94.4066L92.2211 69.5867L91.7427 75.322H90.7558L91.3046 68.2456H92.6592L94.7087 73.5955L96.7682 68.2456H98.1228L98.6667 75.322Z" fill="white"/>
<path d="M16.4615 78.0993C18.4233 78.0993 19.6883 79.5747 19.6883 81.3965C19.6883 83.2409 18.4233 84.6637 16.4615 84.6637H13.8407V88.7438H12.3333V78.0994L16.4615 78.0993ZM16.2342 83.3689C17.4916 83.3689 18.1961 82.5634 18.1961 81.374C18.1961 80.2297 17.4916 79.3866 16.2342 79.3866H13.8406V83.3688L16.2342 83.3689ZM30.2722 88.7437L27.4999 83.9559H26.0001V88.7437H24.4928V78.0993H28.0983C30.3405 78.0993 31.363 79.4618 31.363 81.133C31.363 82.6161 30.4844 83.6474 29.0149 83.8958L32.0372 88.7438L30.2722 88.7437ZM25.9999 79.3939V82.8116H27.8936C29.2874 82.8116 29.916 82.119 29.916 81.1103C29.916 80.1166 29.2873 79.3939 27.8936 79.3939H25.9999ZM41.356 88.8867C38.3185 88.8867 36.0005 86.809 36.0005 83.414C36.0005 80.0264 38.3184 77.9563 41.356 77.9563C44.3783 77.9563 46.7036 80.0265 46.7036 83.414C46.7036 86.8091 44.3782 88.8867 41.356 88.8867ZM41.356 87.479C43.4996 87.479 45.1963 86.0035 45.1963 83.4139C45.1963 80.8468 43.4996 79.3715 41.356 79.3715C39.2048 79.3715 37.5005 80.8469 37.5005 83.4139C37.5005 86.0035 39.2048 87.479 41.356 87.479ZM56.3407 88.8867C53.3033 88.8867 50.9853 86.8166 50.9853 83.414C50.9853 80.0264 53.3031 77.9563 56.3407 77.9563C58.507 77.9563 60.3023 79.0253 61.128 80.8546L59.7342 81.4041C59.1131 80.1018 57.8481 79.3716 56.3408 79.3716C54.1896 79.3716 52.4853 80.847 52.4853 83.414C52.4853 85.9961 54.1896 87.4714 56.3408 87.4714C57.8481 87.4714 59.1131 86.7412 59.7342 85.4389L61.128 85.9959C60.3023 87.8177 58.5072 88.8867 56.3407 88.8867ZM71.5904 78.0993V79.4468H68.8786V88.7438H67.3864V79.4468H64.6671V78.0993H71.5904ZM80.7504 88.8867C77.713 88.8867 75.395 86.809 75.395 83.414C75.395 80.0264 77.7128 77.9563 80.7504 77.9563C83.7727 77.9563 86.0981 80.0265 86.0981 83.414C86.0981 86.8091 83.7727 88.8867 80.7504 88.8867ZM80.7504 87.479C82.894 87.479 84.5907 86.0035 84.5907 83.4139C84.5907 80.8468 82.894 79.3715 80.7504 79.3715C78.5992 79.3715 76.8949 80.8469 76.8949 83.4139C76.8949 86.0035 78.5992 87.479 80.7504 87.479ZM96.9017 88.7437L94.1294 83.9559H92.6296V88.7437H91.1223V78.0993H94.7278C96.9699 78.0993 97.9925 79.4618 97.9925 81.133C97.9925 82.6161 97.1139 83.6474 95.6444 83.8958L98.6667 88.7438L96.9017 88.7437ZM92.6294 79.3939V82.8116H94.5231C95.9168 82.8116 96.5455 82.119 96.5455 81.1103C96.5455 80.1166 95.9168 79.3939 94.5231 79.3939H92.6294Z" fill="white"/>
</g>
<defs>
<clipPath id="clip0_18_115">
<rect width="111" height="101" fill="white"/>
</clipPath>
</defs>
</svg>
