<svg width="68" height="73" viewBox="0 0 68 73" fill="none" xmlns="http://www.w3.org/2000/svg">
<g clip-path="url(#clip0_28_1429)">
<path d="M67.9599 1H44.2488V39.8674L67.9599 17.5868V1ZM63.1625 15.7271L49.0462 28.9902V5.4975H63.1625V15.7271Z" fill="#A9D2FF"/>
<path d="M64.1504 26.3655L45.2407 44.1382L48.6373 47.3144L67.547 29.5416L64.1504 26.3655Z" fill="#A9D2FF"/>
<path d="M0 17.5868L23.7112 39.8674V1H0V17.5868ZM4.7974 5.4975H18.9138V28.9924L4.7974 15.7271V5.4975Z" fill="#A9D2FF"/>
<path d="M3.81013 26.3671L0.413086 29.5428L19.3201 47.3181L22.7172 44.1424L3.81013 26.3671Z" fill="#A9D2FF"/>
<path d="M40.4734 72.96V1H27.4868V72.96H40.4734ZM32.2842 5.4975H35.676V68.4625H32.2842V5.4975Z" fill="#A9D2FF"/>
</g>
<defs>
<clipPath id="clip0_28_1429">
<rect width="67.96" height="73" fill="white"/>
</clipPath>
</defs>
</svg>
