<svg width="17" height="18" viewBox="0 0 17 18" fill="none" xmlns="http://www.w3.org/2000/svg">
<g clip-path="url(#clip0_21_51)">
<path d="M13.0032 7.7296V5.03742C13.0104 3.81927 12.5239 2.64798 11.6553 1.79383C10.8156 0.957706 9.71638 0.5 8.5523 0.5C8.53428 0.5 8.51265 0.5 8.49463 0.5C6.01149 0.503604 3.99325 2.53625 3.99325 5.03742V7.7296C3.05622 7.84132 2.37146 8.62699 2.37146 9.57844V15.6259C2.37146 16.6531 3.19317 17.5 4.2203 17.5H12.7798C13.8069 17.5 14.6286 16.6531 14.6286 15.6259V9.57844C14.625 8.63059 13.9403 7.84132 13.0032 7.7296ZM4.71045 5.03742H4.71405C4.71405 2.93269 6.41153 1.20999 8.49824 1.20999H8.50184C9.49294 1.20638 10.4444 1.59922 11.1472 2.29839C11.8788 3.02279 12.286 4.01028 12.2788 5.03742V7.7332H11.4859V5.03742C11.4931 4.21931 11.1688 3.43364 10.5885 2.85701C10.0407 2.3092 9.29832 1.99926 8.52346 1.99926H8.50184C6.84401 1.99926 5.50332 3.36156 5.50332 5.03381V7.7332H4.71045V5.03742ZM10.7687 5.03742V7.7332H6.22772V5.03742C6.22772 3.76161 7.24405 2.72366 8.50544 2.72366H8.52707C9.11091 2.72366 9.67313 2.95792 10.0876 3.37238C10.5273 3.81206 10.776 4.41393 10.7687 5.03742ZM13.9403 15.6367C13.9403 16.2674 13.4285 16.7792 12.7978 16.7792H4.23472C3.60402 16.7792 3.09226 16.2674 3.09226 15.6367V9.59646C3.09226 8.96576 3.60402 8.454 4.23472 8.454H12.7978C13.4285 8.454 13.9403 8.96576 13.9403 9.59646V15.6367Z" fill="#000842"/>
<path d="M9.74516 12.3932C9.58659 11.8345 9.07843 11.4525 8.49818 11.4525C7.78099 11.4525 7.19714 12.0328 7.19714 12.7536C7.19714 13.3338 7.57917 13.842 8.13778 14.0005V15.0096C8.13778 15.2079 8.29996 15.37 8.49818 15.37C8.6964 15.37 8.85858 15.2079 8.85858 15.0096V14.0005C9.54694 13.8023 9.94699 13.0815 9.74516 12.3932ZM8.49818 13.3302C8.17743 13.3302 7.91794 13.0707 7.91794 12.7499C7.91794 12.4292 8.17743 12.1697 8.49818 12.1697C8.81894 12.1697 9.07842 12.4292 9.07842 12.7499C9.07842 13.0707 8.81894 13.3302 8.49818 13.3302Z" fill="#000842"/>
</g>
<defs>
<clipPath id="clip0_21_51">
<rect width="17" height="17" fill="white" transform="translate(0 0.5)"/>
</clipPath>
</defs>
</svg>
