<svg width="68" height="72" viewBox="0 0 68 72" fill="none" xmlns="http://www.w3.org/2000/svg">
<path d="M67.9599 0H44.2488V38.8674L67.9599 16.5868V0ZM63.1625 14.7271L49.0462 27.9902V4.4975H63.1625V14.7271Z" fill="#A9D2FF"/>
<path d="M64.1504 25.3655L45.2407 43.1382L48.6373 46.3144L67.547 28.5416L64.1504 25.3655Z" fill="#A9D2FF"/>
<path d="M0 16.5868L23.7112 38.8674V0H0V16.5868ZM4.7974 4.4975H18.9138V27.9924L4.7974 14.7271V4.4975Z" fill="#A9D2FF"/>
<path d="M3.81013 25.3671L0.413086 28.5428L19.3201 46.3181L22.7172 43.1424L3.81013 25.3671Z" fill="#A9D2FF"/>
<path d="M40.4734 71.96V0H27.4868V71.96H40.4734ZM32.2842 4.4975H35.676V67.4625H32.2842V4.4975Z" fill="#A9D2FF"/>
</svg>
