<svg width="31" height="31" viewBox="0 0 31 31" fill="none" xmlns="http://www.w3.org/2000/svg">
<path d="M18.6801 2.30099H18.1801V2.32593L18.1826 2.35074L18.6801 2.30099ZM18.6801 2.30097H19.1801V2.27603L19.1776 2.25122L18.6801 2.30097ZM18.7539 3.03891L19.2514 2.98915V2.98915L18.7539 3.03891ZM19.5517 5.7182L19.7431 5.25626L19.5517 5.7182ZM22.0104 4.38781L22.3271 4.77479H22.3271L22.0104 4.38781ZM22.5844 3.91823L22.2678 3.53125L22.2678 3.53125L22.5844 3.91823ZM25.2651 4.05193L24.9115 4.40548V4.40549L25.2651 4.05193ZM26.948 5.73488L27.3016 5.38133L26.948 5.73488ZM27.8796 7.0321L28.379 7.00719L28.379 7.00719L27.8796 7.0321ZM27.0817 8.41557L26.6947 8.09895L27.0817 8.41557ZM26.6121 8.98955L26.9991 9.30617L26.6121 8.98955ZM25.2817 11.4483L24.8198 11.6396L24.8198 11.6396L25.2817 11.4483ZM27.961 12.2461L27.9113 12.7436L27.961 12.2461ZM28.699 12.3199L28.7488 11.8224L28.699 12.3199ZM30.2415 12.734L30.6122 12.3985L30.6122 12.3985L30.2415 12.734ZM30.2415 18.266L30.6122 18.6015H30.6122L30.2415 18.266ZM28.699 18.6801V19.1801H28.724L28.7488 19.1776L28.699 18.6801ZM28.699 18.6801V18.1801H28.6741L28.6493 18.1826L28.699 18.6801ZM27.9616 18.7538L27.9118 18.2563L27.9616 18.7538ZM26.6127 22.0104L26.9996 21.6938L26.6127 22.0104ZM27.0818 22.5838L26.6948 22.9004V22.9004L27.0818 22.5838ZM27.8797 23.9672L28.379 23.9921V23.9921L27.8797 23.9672ZM22.5844 27.0811L22.9011 26.6941H22.9011L22.5844 27.0811ZM22.0105 26.6115L21.6939 26.9985L22.0105 26.6115ZM18.754 27.9604L18.2564 27.9107L18.754 27.9604ZM18.6801 28.699L18.1826 28.6493L18.1801 28.6741V28.699H18.6801ZM18.6801 28.699L19.1776 28.7488L19.1801 28.724V28.699H18.6801ZM18.266 30.2415L18.6015 30.6122V30.6122L18.266 30.2415ZM12.734 30.2415L12.3985 30.6122L12.3985 30.6122L12.734 30.2415ZM12.3199 28.699L11.8224 28.7488L12.3199 28.699ZM12.2461 27.961L11.7486 28.0108L12.2461 27.961ZM11.4483 25.2817L11.6396 24.8198L11.6396 24.8198L11.4483 25.2817ZM8.98955 26.6121L9.30617 26.9991L8.98955 26.6121ZM8.4155 27.0818L8.09888 26.6948L8.4155 27.0818ZM7.03203 27.8797L7.00712 28.379L7.00712 28.379L7.03203 27.8797ZM5.73481 26.9481L6.08837 26.5945L5.73481 26.9481ZM4.05186 25.2651L4.40542 24.9116L4.05186 25.2651ZM3.91816 22.5844L4.30514 22.9011L4.30514 22.9011L3.91816 22.5844ZM4.3878 22.0104L4.00082 21.6938L4.00082 21.6938L4.3878 22.0104ZM3.0389 18.7539L3.08865 18.2564H3.08865L3.0389 18.7539ZM2.30099 18.6801L2.35074 18.1826L2.32593 18.1801H2.30099V18.6801ZM2.30097 18.6801L2.25122 19.1776L2.27603 19.1801H2.30097V18.6801ZM0.758547 18.266L1.12927 17.9305H1.12927L0.758547 18.266ZM0.758547 12.734L0.387822 12.3985H0.387821L0.758547 12.734ZM2.30099 12.3199L2.25124 11.8224H2.25124L2.30099 12.3199ZM3.03946 12.2461L2.98971 11.7485H2.98971L3.03946 12.2461ZM4.38837 8.9895L4.77535 8.67288H4.77535L4.38837 8.9895ZM3.91823 8.41489L3.53125 8.73151L3.91823 8.41489ZM4.05193 5.7342L3.69838 5.38065H3.69838L4.05193 5.7342ZM5.73488 4.05125L5.38133 3.6977V3.6977L5.73488 4.05125ZM8.41557 3.91755L8.09895 4.30453V4.30453L8.41557 3.91755ZM8.98962 4.38723L9.30624 4.00025V4.00025L8.98962 4.38723ZM11.4483 5.71761L11.6397 6.17955L11.4483 5.71761ZM12.2462 3.03832L12.7437 3.08807V3.08807L12.2462 3.03832ZM12.3199 2.30099L11.8224 2.25124V2.25124L12.3199 2.30099ZM12.734 0.758547L12.3985 0.387821V0.387821L12.734 0.758547ZM18.266 0.758547L17.9305 1.12927V1.12927L18.266 0.758547ZM19.1801 2.30099V2.30097H18.1801V2.30099H19.1801ZM19.2514 2.98915L19.1776 2.25124L18.1826 2.35074L18.2564 3.08866L19.2514 2.98915ZM19.7431 5.25626C19.6918 5.23502 19.5902 5.17511 19.4917 4.78327C19.3929 4.39073 19.3348 3.82282 19.2514 2.98915L18.2564 3.08866C18.3364 3.88852 18.4007 4.54578 18.5219 5.02725C18.6432 5.50942 18.8588 5.97239 19.3604 6.18014L19.7431 5.25626ZM21.6938 4.00084C21.0454 4.53138 20.6027 4.89185 20.2553 5.09959C19.9085 5.30695 19.7943 5.27749 19.7431 5.25626L19.3604 6.18014C19.8619 6.38789 20.3418 6.21302 20.7685 5.95784C21.1946 5.70304 21.7049 5.28382 22.3271 4.77479L21.6938 4.00084ZM22.2678 3.53125L21.6938 4.00084L22.3271 4.77479L22.901 4.30521L22.2678 3.53125ZM23.9928 2.62098C23.6592 2.60434 23.3772 2.72122 23.1169 2.88355C22.8687 3.03833 22.5903 3.26736 22.2678 3.53125L22.901 4.30521C23.2442 4.02439 23.4651 3.84489 23.646 3.73211C23.8148 3.62688 23.8917 3.61718 23.9429 3.61974L23.9928 2.62098ZM25.6186 3.69838C25.3239 3.4037 25.0697 3.14811 24.8381 2.9694C24.5952 2.78197 24.3263 2.63762 23.9928 2.62098L23.9429 3.61974C23.9942 3.62229 24.0698 3.6396 24.2272 3.76109C24.396 3.89131 24.5979 4.09191 24.9115 4.40548L25.6186 3.69838ZM27.3016 5.38133L25.6186 3.69838L24.9115 4.40549L26.5945 6.08843L27.3016 5.38133ZM28.379 7.00719C28.3623 6.6736 28.218 6.4047 28.0305 6.16181C27.8518 5.93022 27.5962 5.676 27.3016 5.38133L26.5945 6.08843C26.908 6.40201 27.1086 6.60398 27.2389 6.77273C27.3604 6.93018 27.3777 7.00576 27.3802 7.05701L28.379 7.00719ZM27.4687 8.73219C27.7326 8.40966 27.9616 8.13126 28.1164 7.88304C28.2787 7.62271 28.3956 7.34078 28.379 7.00719L27.3802 7.057C27.3828 7.10825 27.3731 7.18517 27.2678 7.35393C27.1551 7.5348 26.9756 7.75573 26.6947 8.09895L27.4687 8.73219ZM26.9991 9.30617L27.4687 8.73219L26.6947 8.09895L26.2251 8.67293L26.9991 9.30617ZM25.7437 11.2569C25.7224 11.2057 25.693 11.0915 25.9003 10.7447C26.1081 10.3973 26.4685 9.95461 26.9991 9.30617L26.2251 8.67293C25.7161 9.29508 25.2969 9.80536 25.0421 10.2315C24.7869 10.6582 24.612 11.138 24.8198 11.6396L25.7437 11.2569ZM28.0108 11.7486C27.1771 11.6652 26.6092 11.6071 26.2166 11.5083C25.8248 11.4098 25.7649 11.3082 25.7437 11.2569L24.8198 11.6396C25.0275 12.1412 25.4905 12.3568 25.9727 12.4781C26.4541 12.5992 27.1114 12.6636 27.9113 12.7436L28.0108 11.7486ZM28.7488 11.8224L28.0108 11.7486L27.9113 12.7436L28.6493 12.8174L28.7488 11.8224ZM30.6122 12.3985C30.3881 12.1508 30.1061 12.0341 29.8072 11.9648C29.5222 11.8988 29.1634 11.8638 28.7488 11.8224L28.6493 12.8174C29.0905 12.8615 29.3737 12.8908 29.5813 12.939C29.775 12.9839 29.8363 13.0314 29.8707 13.0695L30.6122 12.3985ZM31 14.31C31 13.8932 31.001 13.5327 30.9636 13.2426C30.9244 12.9383 30.8363 12.6461 30.6122 12.3985L29.8707 13.0695C29.9052 13.1075 29.9464 13.1732 29.9718 13.3705C29.999 13.5819 30 13.8665 30 14.31H31ZM31 16.69V14.31H30V16.69H31ZM30.6122 18.6015C30.8363 18.3539 30.9244 18.0617 30.9636 17.7574C31.001 17.4673 31 17.1068 31 16.69H30C30 17.1335 29.999 17.4181 29.9718 17.6296C29.9464 17.8268 29.9052 17.8925 29.8707 17.9305L30.6122 18.6015ZM28.7488 19.1776C29.1634 19.1362 29.5222 19.1012 29.8072 19.0352C30.1061 18.9659 30.3881 18.8492 30.6122 18.6015L29.8707 17.9305C29.8363 17.9686 29.775 18.0161 29.5813 18.061C29.3737 18.1092 29.0905 18.1385 28.6493 18.1826L28.7488 19.1776ZM28.699 19.1801H28.699V18.1801H28.699V19.1801ZM28.0113 19.2514L28.7488 19.1776L28.6493 18.1826L27.9118 18.2563L28.0113 19.2514ZM25.7442 19.743C25.7655 19.6918 25.8254 19.5902 26.2172 19.4916C26.6097 19.3929 27.1777 19.3347 28.0113 19.2514L27.9118 18.2563C27.1119 18.3363 26.4547 18.4007 25.9732 18.5218C25.4911 18.6431 25.0281 18.8588 24.8203 19.3603L25.7442 19.743ZM26.9996 21.6938C26.4691 21.0453 26.1086 20.6027 25.9009 20.2553C25.6935 19.9085 25.723 19.7943 25.7442 19.743L24.8203 19.3603C24.6126 19.8619 24.7875 20.3418 25.0426 20.7685C25.2974 21.1946 25.7167 21.7049 26.2257 22.327L26.9996 21.6938ZM27.4688 22.2671L26.9996 21.6938L26.2257 22.327L26.6948 22.9004L27.4688 22.2671ZM28.379 23.9921C28.3957 23.6586 28.2788 23.3766 28.1165 23.1163C27.9617 22.8681 27.7327 22.5897 27.4688 22.2671L26.6948 22.9004C26.9756 23.2436 27.1551 23.4645 27.2679 23.6454C27.3731 23.8142 27.3828 23.8911 27.3803 23.9423L28.379 23.9921ZM27.3016 25.618C27.5963 25.3233 27.8519 25.0691 28.0306 24.8375C28.218 24.5946 28.3624 24.3257 28.379 23.9921L27.3803 23.9423C27.3777 23.9936 27.3604 24.0692 27.2389 24.2266C27.1087 24.3954 26.9081 24.5973 26.5945 24.9109L27.3016 25.618ZM25.6187 27.301L27.3016 25.618L26.5945 24.9109L24.9116 26.5939L25.6187 27.301ZM23.9928 28.3784C24.3264 28.3617 24.5953 28.2174 24.8382 28.0299C25.0698 27.8512 25.324 27.5956 25.6187 27.301L24.9116 26.5939C24.598 26.9074 24.396 27.108 24.2273 27.2382C24.0698 27.3597 23.9943 27.377 23.943 27.3796L23.9928 28.3784ZM22.2678 27.4681C22.5904 27.732 22.8688 27.961 23.117 28.1158C23.3773 28.2781 23.6592 28.395 23.9928 28.3784L23.943 27.3796C23.8918 27.3822 23.8148 27.3725 23.6461 27.2672C23.4652 27.1545 23.2443 26.9749 22.9011 26.6941L22.2678 27.4681ZM21.6939 26.9985L22.2678 27.4681L22.9011 26.6941L22.3271 26.2245L21.6939 26.9985ZM19.7431 25.7431C19.7944 25.7218 19.9086 25.6924 20.2554 25.8997C20.6028 26.1075 21.0454 26.468 21.6939 26.9985L22.3271 26.2245C21.705 25.7155 21.1947 25.2963 20.7686 25.0415C20.3419 24.7863 19.862 24.6114 19.3605 24.8192L19.7431 25.7431ZM19.2515 28.0102C19.3348 27.1765 19.393 26.6086 19.4917 26.2161C19.5903 25.8242 19.6919 25.7643 19.7431 25.7431L19.3605 24.8192C18.8589 25.0269 18.6432 25.4899 18.5219 25.9721C18.4008 26.4536 18.3364 27.1108 18.2564 27.9107L19.2515 28.0102ZM19.1776 28.7488L19.2515 28.0102L18.2564 27.9107L18.1826 28.6493L19.1776 28.7488ZM19.1801 28.699V28.699H18.1801V28.699H19.1801ZM18.6015 30.6122C18.8492 30.3881 18.9659 30.1061 19.0352 29.8072C19.1012 29.5222 19.1362 29.1634 19.1776 28.7488L18.1826 28.6493C18.1385 29.0905 18.1092 29.3737 18.061 29.5813C18.0161 29.775 17.9686 29.8363 17.9305 29.8707L18.6015 30.6122ZM16.69 31C17.1068 31 17.4673 31.001 17.7574 30.9636C18.0617 30.9244 18.3539 30.8363 18.6015 30.6122L17.9305 29.8707C17.8925 29.9052 17.8268 29.9464 17.6296 29.9718C17.4181 29.999 17.1335 30 16.69 30V31ZM14.31 31H16.69V30H14.31V31ZM12.3985 30.6122C12.6461 30.8363 12.9383 30.9244 13.2426 30.9636C13.5327 31.001 13.8932 31 14.31 31V30C13.8665 30 13.5819 29.999 13.3705 29.9718C13.1732 29.9464 13.1075 29.9052 13.0695 29.8707L12.3985 30.6122ZM11.8224 28.7488C11.8638 29.1634 11.8988 29.5222 11.9648 29.8072C12.0341 30.1061 12.1508 30.3881 12.3985 30.6122L13.0695 29.8707C13.0314 29.8363 12.9839 29.775 12.939 29.5813C12.8908 29.3737 12.8615 29.0905 12.8174 28.6493L11.8224 28.7488ZM11.7486 28.0108L11.8224 28.7488L12.8174 28.6493L12.7436 27.9113L11.7486 28.0108ZM11.2569 25.7437C11.3082 25.7649 11.4098 25.8248 11.5083 26.2166C11.6071 26.6092 11.6652 27.1771 11.7486 28.0108L12.7436 27.9113C12.6636 27.1114 12.5992 26.4541 12.4781 25.9727C12.3568 25.4905 12.1412 25.0275 11.6396 24.8198L11.2569 25.7437ZM9.30617 26.9991C9.95461 26.4685 10.3973 26.1081 10.7447 25.9003C11.0915 25.693 11.2057 25.7224 11.2569 25.7437L11.6396 24.8198C11.138 24.612 10.6582 24.7869 10.2315 25.0421C9.80536 25.2969 9.29508 25.7161 8.67293 26.2251L9.30617 26.9991ZM8.73212 27.4688L9.30617 26.9991L8.67293 26.2251L8.09888 26.6948L8.73212 27.4688ZM7.00712 28.379C7.34071 28.3957 7.62264 28.2788 7.88298 28.1165C8.1312 27.9617 8.40959 27.7327 8.73212 27.4688L8.09888 26.6948C7.75566 26.9756 7.53473 27.1551 7.35386 27.2679C7.18511 27.3731 7.10818 27.3828 7.05694 27.3803L7.00712 28.379ZM5.38126 27.3016C5.67593 27.5963 5.93015 27.8519 6.16174 28.0306C6.40463 28.218 6.67353 28.3624 7.00712 28.379L7.05694 27.3803C7.00569 27.3777 6.93011 27.3604 6.77266 27.2389C6.60391 27.1087 6.40195 26.9081 6.08837 26.5945L5.38126 27.3016ZM3.69831 25.6187L5.38126 27.3016L6.08837 26.5945L4.40542 24.9116L3.69831 25.6187ZM2.62091 23.9928C2.63755 24.3264 2.7819 24.5953 2.96933 24.8382C3.14804 25.0698 3.40364 25.324 3.69831 25.6187L4.40542 24.9116C4.09184 24.598 3.89124 24.396 3.76102 24.2273C3.63953 24.0698 3.62222 23.9943 3.61967 23.943L2.62091 23.9928ZM3.53118 22.2678C3.26729 22.5904 3.03826 22.8688 2.88349 23.117C2.72116 23.3773 2.60427 23.6592 2.62091 23.9928L3.61967 23.943C3.61711 23.8918 3.62681 23.8148 3.73204 23.6461C3.84482 23.4652 4.02432 23.2443 4.30514 22.9011L3.53118 22.2678ZM4.00082 21.6938L3.53118 22.2678L4.30514 22.9011L4.77478 22.3271L4.00082 21.6938ZM5.25625 19.7431C5.27748 19.7943 5.30694 19.9085 5.09958 20.2553C4.89184 20.6027 4.53137 21.0454 4.00082 21.6938L4.77478 22.3271C5.28381 21.7049 5.70303 21.1946 5.95783 20.7685C6.21301 20.3418 6.38788 19.8619 6.18013 19.3604L5.25625 19.7431ZM2.98915 19.2514C3.82282 19.3348 4.39072 19.3929 4.78326 19.4917C5.1751 19.5902 5.23501 19.6918 5.25625 19.7431L6.18013 19.3604C5.97237 18.8588 5.50941 18.6432 5.02724 18.5219C4.54577 18.4007 3.88852 18.3364 3.08865 18.2564L2.98915 19.2514ZM2.25124 19.1776L2.98915 19.2514L3.08865 18.2564L2.35074 18.1826L2.25124 19.1776ZM2.30097 19.1801H2.30099V18.1801H2.30097V19.1801ZM0.387821 18.6015C0.611937 18.8492 0.893941 18.9659 1.19281 19.0352C1.47776 19.1012 1.83656 19.1361 2.25122 19.1776L2.35073 18.1826C1.90947 18.1385 1.62632 18.1092 1.41869 18.061C1.22495 18.0161 1.1637 17.9686 1.12927 17.9305L0.387821 18.6015ZM0 16.69C0 17.1068 -0.000971317 17.4672 0.03642 17.7574C0.0756359 18.0617 0.163704 18.3539 0.387821 18.6015L1.12927 17.9305C1.09484 17.8925 1.05364 17.8268 1.02822 17.6295C1.00097 17.4181 1 17.1335 1 16.69H0ZM0 14.31V16.69H1V14.31H0ZM0.387821 12.3985C0.163704 12.6461 0.0756359 12.9383 0.03642 13.2426C-0.000971317 13.5327 0 13.8932 0 14.31H1C1 13.8665 1.00097 13.5818 1.02822 13.3704C1.05364 13.1732 1.09484 13.1075 1.12927 13.0695L0.387821 12.3985ZM2.25124 11.8224C1.83658 11.8638 1.47777 11.8988 1.19281 11.9648C0.893945 12.0341 0.611939 12.1508 0.387822 12.3985L1.12927 13.0695C1.1637 13.0314 1.22495 12.9839 1.41869 12.939C1.62633 12.8908 1.90948 12.8615 2.35074 12.8174L2.25124 11.8224ZM2.98971 11.7485L2.25124 11.8224L2.35074 12.8174L3.08921 12.7436L2.98971 11.7485ZM5.25681 11.2569C5.23558 11.3081 5.17566 11.4097 4.78383 11.5083C4.39128 11.607 3.82338 11.6652 2.98971 11.7485L3.08921 12.7436C3.88908 12.6636 4.54633 12.5992 5.0278 12.4781C5.50998 12.3568 5.97294 12.1411 6.18069 11.6395L5.25681 11.2569ZM4.00139 9.30612C4.53193 9.95457 4.8924 10.3972 5.10014 10.7446C5.30751 11.0914 5.27804 11.2056 5.25681 11.2569L6.18069 11.6395C6.38844 11.138 6.21357 10.6581 5.9584 10.2314C5.7036 9.80531 5.28438 9.29503 4.77535 8.67288L4.00139 9.30612ZM3.53125 8.73151L4.00139 9.30612L4.77535 8.67288L4.30521 8.09827L3.53125 8.73151ZM2.62098 7.00651C2.60434 7.3401 2.72122 7.62203 2.88355 7.88236C3.03833 8.13058 3.26736 8.40897 3.53125 8.73151L4.30521 8.09827C4.02439 7.75504 3.84488 7.53412 3.7321 7.35325C3.62688 7.18449 3.61718 7.10757 3.61974 7.05632L2.62098 7.00651ZM3.69838 5.38065C3.4037 5.67532 3.14811 5.92954 2.9694 6.16113C2.78197 6.40402 2.63762 6.67292 2.62098 7.00651L3.61974 7.05632C3.62229 7.00508 3.6396 6.9295 3.76109 6.77205C3.89131 6.6033 4.09191 6.40133 4.40549 6.08775L3.69838 5.38065ZM5.38133 3.6977L3.69838 5.38065L4.40548 6.08775L6.08843 4.4048L5.38133 3.6977ZM7.00719 2.6203C6.6736 2.63694 6.4047 2.78129 6.16181 2.96872C5.93022 3.14743 5.676 3.40302 5.38133 3.6977L6.08843 4.40481C6.40201 4.09123 6.60398 3.89063 6.77273 3.76041C6.93018 3.63892 7.00576 3.62161 7.057 3.61906L7.00719 2.6203ZM8.73219 3.53057C8.40966 3.26668 8.13126 3.03765 7.88304 2.88287C7.62271 2.72054 7.34078 2.60366 7.00719 2.6203L7.057 3.61906C7.10825 3.6165 7.18517 3.6262 7.35393 3.73143C7.5348 3.84421 7.75573 4.02371 8.09895 4.30453L8.73219 3.53057ZM9.30624 4.00025L8.73219 3.53057L8.09895 4.30453L8.673 4.77421L9.30624 4.00025ZM11.257 5.25567C11.2057 5.2769 11.0915 5.30637 10.7448 5.099C10.3973 4.89126 9.95468 4.53079 9.30624 4.00025L8.673 4.77421C9.29515 5.28324 9.80543 5.70245 10.2315 5.95725C10.6582 6.21243 11.1381 6.3873 11.6397 6.17955L11.257 5.25567ZM11.7486 2.98857C11.6653 3.82224 11.6072 4.39014 11.5084 4.78268C11.4098 5.17452 11.3082 5.23444 11.257 5.25567L11.6397 6.17955C12.1412 5.9718 12.3569 5.50883 12.4782 5.02666C12.5993 4.54519 12.6637 3.88794 12.7437 3.08807L11.7486 2.98857ZM11.8224 2.25124L11.7486 2.98857L12.7437 3.08807L12.8174 2.35074L11.8224 2.25124ZM12.3985 0.387821C12.1508 0.611939 12.0341 0.893945 11.9648 1.19281C11.8988 1.47777 11.8638 1.83658 11.8224 2.25124L12.8174 2.35074C12.8615 1.90948 12.8908 1.62633 12.939 1.41869C12.9839 1.22495 13.0314 1.1637 13.0695 1.12927L12.3985 0.387821ZM14.31 0C13.8932 0 13.5327 -0.000971317 13.2426 0.03642C12.9383 0.0756359 12.6461 0.163704 12.3985 0.387821L13.0695 1.12927C13.1075 1.09484 13.1732 1.05364 13.3705 1.02822C13.5819 1.00097 13.8665 1 14.31 1V0ZM16.69 0H14.31V1H16.69V0ZM18.6015 0.387821C18.3539 0.163704 18.0617 0.0756359 17.7574 0.03642C17.4673 -0.000971317 17.1068 0 16.69 0V1C17.1335 1 17.4181 1.00097 17.6296 1.02822C17.8268 1.05364 17.8925 1.09484 17.9305 1.12927L18.6015 0.387821ZM19.1776 2.25122C19.1362 1.83656 19.1012 1.47776 19.0352 1.19281C18.9659 0.893941 18.8492 0.611936 18.6015 0.387821L17.9305 1.12927C17.9686 1.1637 18.0161 1.22495 18.061 1.41869C18.1092 1.62632 18.1385 1.90947 18.1826 2.35073L19.1776 2.25122ZM21 15.5C21 18.5376 18.5376 21 15.5 21V22C19.0899 22 22 19.0899 22 15.5H21ZM15.5 10C18.5376 10 21 12.4624 21 15.5H22C22 11.9101 19.0899 9 15.5 9V10ZM10 15.5C10 12.4624 12.4624 10 15.5 10V9C11.9101 9 9 11.9101 9 15.5H10ZM15.5 21C12.4624 21 10 18.5376 10 15.5H9C9 19.0899 11.9101 22 15.5 22V21Z" fill="white"/>
</svg>
